<svg xmlns="http://www.w3.org/2000/svg" xmlns:xlink="http://www.w3.org/1999/xlink" width="60" height="60" viewBox="0 0 60 60">
    <defs>
        <path id="a" d="M.448.387H39.02v38.71H.448z"/>
        <path id="c" d="M0 .57h28.799v26.666H0z"/>
    </defs>
    <g fill="none" fill-rule="evenodd">
        <g transform="translate(14.889 13.443)">
            <mask id="b" fill="#fff">
                <use xlink:href="#a"/>
            </mask>
            <path fill="#6CFFC0" d="M5.592 9.32c-6.755 6.708-6.873 17.702-.263 24.557a16.926 16.926 0 0 0 24.192.266c5.82-5.777 8.782-26.753 9.49-32.452a1.148 1.148 0 0 0-1.25-1.298C32.13.99 11.407 3.541 5.591 9.32" mask="url(#b)"/>
        </g>
        <path stroke="#4B4668" stroke-width="4.05" d="M15.087 16.137c-6.82 6.64-6.937 17.523-.26 24.31 6.674 6.788 17.614 6.908 24.43.268 5.876-5.718 8.863-26.48 9.576-32.122a1.148 1.148 0 0 0-1.263-1.286c-5.683.59-26.61 3.11-32.483 8.83z"/>
        <g transform="translate(6 20.06)">
            <mask id="d" fill="#fff">
                <use xlink:href="#c"/>
            </mask>
            <path fill="#4B4668" d="M26.233.977L.47 24.703c-1.418 1.306.684 3.426 2.095 2.126 8.588-7.908 17.175-15.817 25.761-23.726 1.419-1.306-.683-3.426-2.094-2.126" mask="url(#d)"/>
        </g>
    </g>
</svg>
